HIERARCHY
ROOT mixamorig4:Hips
{
	OFFSET 0.000000 96.663811 0.000000
	CHANNELS 6 Xposition Yposition Zposition Xrotation Yrotation Zrotation
	JOINT mixamorig4:Spine
	{
		OFFSET 0.000000 9.892899 -0.431000
		CHANNELS 3 Xrotation Yrotation Zrotation
		JOINT mixamorig4:Spine1
		{
			OFFSET 0.000000 11.541649 -0.502870
			CHANNELS 3 Xrotation Yrotation Zrotation
			JOINT mixamorig4:Spine2
			{
				OFFSET 0.000000 13.190491 -0.574710
				CHANNELS 3 Xrotation Yrotation Zrotation
				JOINT mixamorig4:Neck
				{
					OFFSET 0.000000 14.839325 -0.646549
					CHANNELS 3 Xrotation Yrotation Zrotation
					JOINT mixamorig4:Head
					{
						OFFSET 0.000000 7.381805 2.166100
						CHANNELS 3 Xrotation Yrotation Zrotation
						JOINT mixamorig4:HeadTop_End
						{
							OFFSET 0.000000 21.350494 6.265100
							CHANNELS 3 Xrotation Yrotation Zrotation
							End Site
							{
								OFFSET 0.000000 22.250732 0.000000
							}
						}
					}
				}
				JOINT mixamorig4:LeftShoulder
				{
					OFFSET 5.775700 12.826767 -0.654653
					CHANNELS 3 Xrotation Yrotation Zrotation
					JOINT mixamorig4:LeftArm
					{
						OFFSET 11.562311 -4.010452 -0.016174
						CHANNELS 3 Xrotation Yrotation Zrotation
						JOINT mixamorig4:LeftForeArm
						{
							OFFSET 20.800905 0.000000 0.000001
							CHANNELS 3 Xrotation Yrotation Zrotation
							JOINT mixamorig4:LeftHand
							{
								OFFSET 27.539200 0.000000 0.000000
								CHANNELS 3 Xrotation Yrotation Zrotation
								JOINT mixamorig4:LeftHandThumb1
								{
									OFFSET 3.100891 -1.286819 2.529086
									CHANNELS 3 Xrotation Yrotation Zrotation
									JOINT mixamorig4:LeftHandThumb2
									{
										OFFSET 2.604698 -1.503830 1.503824
										CHANNELS 3 Xrotation Yrotation Zrotation
										JOINT mixamorig4:LeftHandThumb3
										{
											OFFSET 2.412659 -1.392944 1.392950
											CHANNELS 3 Xrotation Yrotation Zrotation
											JOINT mixamorig4:LeftHandThumb4
											{
												OFFSET 2.004288 -1.157181 1.157175
												CHANNELS 3 Xrotation Yrotation Zrotation
												End Site
												{
													OFFSET 1.713249 -1.124954 1.579418
												}
											}
										}
									}
								}
								JOINT mixamorig4:LeftHandIndex1
								{
									OFFSET 9.290161 -0.230286 2.370967
									CHANNELS 3 Xrotation Yrotation Zrotation
									JOINT mixamorig4:LeftHandIndex2
									{
										OFFSET 3.036003 0.000000 0.000000
										CHANNELS 3 Xrotation Yrotation Zrotation
										JOINT mixamorig4:LeftHandIndex3
										{
											OFFSET 2.816505 0.000000 0.000000
											CHANNELS 3 Xrotation Yrotation Zrotation
											JOINT mixamorig4:LeftHandIndex4
											{
												OFFSET 2.471802 0.000000 0.000000
												CHANNELS 3 Xrotation Yrotation Zrotation
												End Site
												{
													OFFSET 2.471802 0.000000 -0.001400
												}
											}
										}
									}
								}
								JOINT mixamorig4:LeftHandMiddle1
								{
									OFFSET 9.276535 0.000000 0.000000
									CHANNELS 3 Xrotation Yrotation Zrotation
									JOINT mixamorig4:LeftHandMiddle2
									{
										OFFSET 3.234901 0.000000 0.000000
										CHANNELS 3 Xrotation Yrotation Zrotation
										JOINT mixamorig4:LeftHandMiddle3
										{
											OFFSET 2.983704 0.000000 0.000000
											CHANNELS 3 Xrotation Yrotation Zrotation
											JOINT mixamorig4:LeftHandMiddle4
											{
												OFFSET 2.678604 0.000000 0.000000
												CHANNELS 3 Xrotation Yrotation Zrotation
												End Site
												{
													OFFSET 2.678604 0.000000 -0.001300
												}
											}
										}
									}
								}
								JOINT mixamorig4:LeftHandRing1
								{
									OFFSET 8.915253 -0.006714 -1.944710
									CHANNELS 3 Xrotation Yrotation Zrotation
									JOINT mixamorig4:LeftHandRing2
									{
										OFFSET 2.780998 0.000000 0.000000
										CHANNELS 3 Xrotation Yrotation Zrotation
										JOINT mixamorig4:LeftHandRing3
										{
											OFFSET 2.676903 0.000000 0.000000
											CHANNELS 3 Xrotation Yrotation Zrotation
											JOINT mixamorig4:LeftHandRing4
											{
												OFFSET 2.394997 0.000000 0.000000
												CHANNELS 3 Xrotation Yrotation Zrotation
												End Site
												{
													OFFSET 2.395004 0.000000 0.000400
												}
											}
										}
									}
								}
								JOINT mixamorig4:LeftHandPinky1
								{
									OFFSET 8.123695 -0.229385 -3.925660
									CHANNELS 3 Xrotation Yrotation Zrotation
									JOINT mixamorig4:LeftHandPinky2
									{
										OFFSET 2.455399 0.000000 0.000000
										CHANNELS 3 Xrotation Yrotation Zrotation
										JOINT mixamorig4:LeftHandPinky3
										{
											OFFSET 2.070198 0.000000 0.000000
											CHANNELS 3 Xrotation Yrotation Zrotation
											JOINT mixamorig4:LeftHandPinky4
											{
												OFFSET 1.763000 0.000000 0.000000
												CHANNELS 3 Xrotation Yrotation Zrotation
												End Site
												{
													OFFSET 1.763000 0.000000 0.000000
												}
											}
										}
									}
								}
							}
						}
					}
				}
				JOINT mixamorig4:RightShoulder
				{
					OFFSET -5.775700 12.826767 -0.638438
					CHANNELS 3 Xrotation Yrotation Zrotation
					JOINT mixamorig4:RightArm
					{
						OFFSET -11.562309 -4.010468 0.016174
						CHANNELS 3 Xrotation Yrotation Zrotation
						JOINT mixamorig4:RightForeArm
						{
							OFFSET -20.814304 0.000000 -0.000001
							CHANNELS 3 Xrotation Yrotation Zrotation
							JOINT mixamorig4:RightHand
							{
								OFFSET -27.544006 0.000000 -0.000001
								CHANNELS 3 Xrotation Yrotation Zrotation
								JOINT mixamorig4:RightHandThumb1
								{
									OFFSET -3.074989 -1.237198 2.477178
									CHANNELS 3 Xrotation Yrotation Zrotation
									JOINT mixamorig4:RightHandThumb2
									{
										OFFSET -2.564148 -1.480408 1.480413
										CHANNELS 3 Xrotation Yrotation Zrotation
										JOINT mixamorig4:RightHandThumb3
										{
											OFFSET -2.418205 -1.396149 1.396152
											CHANNELS 3 Xrotation Yrotation Zrotation
											JOINT mixamorig4:RightHandThumb4
											{
												OFFSET -2.042076 -1.178986 1.178992
												CHANNELS 3 Xrotation Yrotation Zrotation
												End Site
												{
													OFFSET -1.711296 -1.134842 1.653396
												}
											}
										}
									}
								}
								JOINT mixamorig4:RightHandIndex1
								{
									OFFSET -9.296288 -0.339722 2.446129
									CHANNELS 3 Xrotation Yrotation Zrotation
									JOINT mixamorig4:RightHandIndex2
									{
										OFFSET -3.039406 0.000000 -0.000000
										CHANNELS 3 Xrotation Yrotation Zrotation
										JOINT mixamorig4:RightHandIndex3
										{
											OFFSET -2.797897 0.000000 -0.000000
											CHANNELS 3 Xrotation Yrotation Zrotation
											JOINT mixamorig4:RightHandIndex4
											{
												OFFSET -2.330803 0.000000 -0.000000
												CHANNELS 3 Xrotation Yrotation Zrotation
												End Site
												{
													OFFSET -2.330803 0.000000 -0.004300
												}
											}
										}
									}
								}
								JOINT mixamorig4:RightHandMiddle1
								{
									OFFSET -9.301529 0.000000 -0.000000
									CHANNELS 3 Xrotation Yrotation Zrotation
									JOINT mixamorig4:RightHandMiddle2
									{
										OFFSET -3.244804 0.000000 0.000000
										CHANNELS 3 Xrotation Yrotation Zrotation
										JOINT mixamorig4:RightHandMiddle3
										{
											OFFSET -2.990799 0.000000 0.000000
											CHANNELS 3 Xrotation Yrotation Zrotation
											JOINT mixamorig4:RightHandMiddle4
											{
												OFFSET -2.663803 0.000000 0.000000
												CHANNELS 3 Xrotation Yrotation Zrotation
												End Site
												{
													OFFSET -2.663803 0.000000 -0.000700
												}
											}
										}
									}
								}
								JOINT mixamorig4:RightHandRing1
								{
									OFFSET -9.124245 -0.157913 -2.036981
									CHANNELS 3 Xrotation Yrotation Zrotation
									JOINT mixamorig4:RightHandRing2
									{
										OFFSET -2.709801 0.000000 0.000000
										CHANNELS 3 Xrotation Yrotation Zrotation
										JOINT mixamorig4:RightHandRing3
										{
											OFFSET -2.570099 0.000000 0.000000
											CHANNELS 3 Xrotation Yrotation Zrotation
											JOINT mixamorig4:RightHandRing4
											{
												OFFSET -2.194504 0.000000 0.000000
												CHANNELS 3 Xrotation Yrotation Zrotation
												End Site
												{
													OFFSET -2.194504 0.000000 -0.002700
												}
											}
										}
									}
								}
								JOINT mixamorig4:RightHandPinky1
								{
									OFFSET -8.193573 -0.290237 -3.979754
									CHANNELS 3 Xrotation Yrotation Zrotation
									JOINT mixamorig4:RightHandPinky2
									{
										OFFSET -2.459801 0.000000 0.000000
										CHANNELS 3 Xrotation Yrotation Zrotation
										JOINT mixamorig4:RightHandPinky3
										{
											OFFSET -2.040001 0.000000 0.000000
											CHANNELS 3 Xrotation Yrotation Zrotation
											JOINT mixamorig4:RightHandPinky4
											{
												OFFSET -1.703903 0.000000 0.000000
												CHANNELS 3 Xrotation Yrotation Zrotation
												End Site
												{
													OFFSET -1.703903 0.000000 -0.000300
												}
											}
										}
									}
								}
							}
						}
					}
				}
			}
		}
	}
	JOINT mixamorig4:LeftUpLeg
	{
		OFFSET 9.206900 -5.488899 -0.519900
		CHANNELS 3 Xrotation Yrotation Zrotation
		JOINT mixamorig4:LeftLeg
		{
			OFFSET 0.939460 -43.456089 -2.162636
			CHANNELS 3 Xrotation Yrotation Zrotation
			JOINT mixamorig4:LeftFoot
			{
				OFFSET -0.939460 -36.744568 -2.955552
				CHANNELS 3 Xrotation Yrotation Zrotation
				JOINT mixamorig4:LeftToeBase
				{
					OFFSET 0.450000 -9.939129 12.432682
					CHANNELS 3 Xrotation Yrotation Zrotation
					JOINT mixamorig4:LeftToe_End
					{
						OFFSET 0.167031 -0.021090 4.948236
						CHANNELS 3 Xrotation Yrotation Zrotation
						End Site
						{
							OFFSET 0.167031 -0.021090 4.948236
						}
					}
				}
			}
		}
	}
	JOINT mixamorig4:RightUpLeg
	{
		OFFSET -9.206900 -5.488899 -0.459600
		CHANNELS 3 Xrotation Yrotation Zrotation
		JOINT mixamorig4:RightLeg
		{
			OFFSET -0.939411 -43.456059 -2.150847
			CHANNELS 3 Xrotation Yrotation Zrotation
			JOINT mixamorig4:RightFoot
			{
				OFFSET 0.939404 -36.744621 -3.027655
				CHANNELS 3 Xrotation Yrotation Zrotation
				JOINT mixamorig4:RightToeBase
				{
					OFFSET -0.450056 -9.939566 12.302768
					CHANNELS 3 Xrotation Yrotation Zrotation
					JOINT mixamorig4:RightToe_End
					{
						OFFSET -0.167048 -0.021339 4.889001
						CHANNELS 3 Xrotation Yrotation Zrotation
						End Site
						{
							OFFSET -0.167048 -0.021339 4.889002
						}
					}
				}
			}
		}
	}
}
MOTION
Frames: 4
Frame Time: 0.033333
-0.366467 91.864105 0.029003 -12.423636 -47.629149 -4.957963 1.479163 0.318229 0.149772 2.957051 0.655322 0.386311 2.957052 0.655328 0.386311 4.813383 1.865429 -1.087497 4.813384 1.865425 -1.087500 0.000001 0.000000 0.000000 0.304668 -19.201120 -0.171803 -38.274208 31.784733 -20.909656 7.483191 -117.224597 4.955782 7.528546 2.796025 -0.214516 10.331041 -16.347081 1.638560 27.058595 23.234208 -54.092537 -0.000002 0.000001 0.000003 0.000003 -0.000003 0.000003 -3.339934 -3.853973 -108.808609 -8.508985 1.107436 -95.054582 0.000005 -0.000001 -0.000004 -0.000001 0.000000 0.000001 -8.034943 0.499762 -103.291107 -8.993079 -0.383433 -94.740570 0.000004 0.000002 0.000004 0.000003 -0.000002 0.000001 -9.078020 6.355202 -108.016942 -1.894709 -7.274906 -86.546570 -0.000010 0.000001 -0.000010 -0.000000 0.000001 -0.000000 -13.125226 7.301161 -109.760040 -0.023916 -11.514216 -94.102378 -0.000011 0.000011 -0.000003 -0.000002 -0.000002 -0.000001 -0.130281 -3.686170 1.970061 -62.330940 58.238052 97.078653 2.347574 109.660285 -3.192716 20.031582 15.266069 -3.877476 10.331073 16.347081 -1.638590 27.058674 -23.234133 54.092533 -0.000017 0.000023 -0.000003 0.000000 -0.000003 0.000005 -2.944728 2.694782 108.786076 -7.176473 -2.327181 95.057840 0.000002 0.000003 0.000005 -0.000002 -0.000000 -0.000001 -7.774322 -1.602691 103.295915 -7.766090 -0.746021 94.740830 -0.000002 -0.000001 0.000005 -0.000001 0.000002 -0.000002 -9.528845 -4.973967 107.972484 -3.179752 8.705792 86.513847 0.000009 -0.000004 0.000010 -0.000000 -0.000001 0.000005 -14.196567 -4.324904 109.651550 -3.418936 14.667375 94.155326 -0.000010 -0.000015 0.000002 -0.000001 -0.000000 0.000001 -16.240481 18.285682 14.539586 26.495089 2.354137 0.574175 -2.307960 1.639687 -11.492582 1.956755 -0.000017 -0.000001 -0.000000 -0.000002 0.000000 -6.219091 -12.154228 -15.037546 34.780467 3.284939 -5.689347 -21.477443 -2.940703 11.530689 -1.540380 -0.000020 0.000004 -0.000000 -0.000002 -0.000000 
-0.373200 91.858147 0.043360 -12.264409 -47.559031 -4.853424 1.493582 0.317954 0.147981 2.985911 0.655582 0.379656 2.985911 0.655588 0.379657 4.798643 1.866838 -1.081360 4.798641 1.866820 -1.081356 0.000000 -0.000001 0.000000 0.302829 -19.209644 -0.193664 -38.335420 31.731174 -20.929380 7.479992 -117.247423 4.954507 7.106208 2.652214 -0.144917 10.332557 -16.348358 1.640393 27.058858 23.233341 -54.094665 -0.000003 -0.000000 0.000002 0.000001 -0.000006 -0.000002 -3.339940 -3.853942 -108.808629 -8.508973 1.107437 -95.054595 0.000003 0.000003 -0.000004 -0.000001 0.000001 -0.000000 -8.034896 0.499783 -103.291127 -8.993074 -0.383425 -94.740536 0.000004 0.000001 0.000004 0.000002 0.000000 0.000001 -9.078033 6.355214 -108.016949 -1.894704 -7.274889 -86.546550 -0.000009 -0.000002 -0.000008 -0.000002 -0.000002 -0.000000 -13.125210 7.301174 -109.759952 -0.023900 -11.514221 -94.102972 -0.000011 0.000007 -0.000004 0.000002 0.000001 -0.000003 -0.130593 -3.593861 2.011679 -62.049940 58.222083 96.829276 2.324376 109.798324 -3.165033 20.124324 15.128189 -3.765818 10.332564 16.348367 -1.640413 27.058959 -23.233278 54.094630 -0.000012 0.000025 -0.000002 0.000004 -0.000003 -0.000001 -2.944735 2.694778 108.786076 -7.176460 -2.327170 95.057826 0.000001 0.000001 0.000003 -0.000002 0.000000 -0.000002 -7.774337 -1.602696 103.295915 -7.766090 -0.746037 94.740844 0.000001 0.000000 0.000005 0.000001 0.000001 -0.000004 -9.528875 -4.973958 107.972471 -3.179750 8.705773 86.513826 0.000004 -0.000005 0.000012 0.000000 -0.000000 0.000000 -14.196568 -4.324887 109.651406 -3.418975 14.667360 94.155920 -0.000008 -0.000015 0.000003 -0.000001 0.000001 -0.000001 -16.387183 18.252306 14.563594 26.556650 2.301159 0.556221 -2.337219 1.633108 -11.468503 1.678346 -0.000019 -0.000000 -0.000000 0.000001 -0.000000 -6.259569 -12.100692 -14.961862 34.766301 3.127645 -5.730586 -21.483691 -2.963877 11.601960 -1.602859 0.000028 0.000008 0.000000 -0.000001 0.000000 
-0.375539 91.867813 0.062097 -12.072368 -47.323048 -4.735534 1.517267 0.333574 0.138447 3.033313 0.688483 0.352954 3.033311 0.688451 0.352954 4.758298 1.853008 -1.033322 4.758318 1.853022 -1.033323 0.000000 0.000002 -0.000001 0.301354 -19.227696 -0.192189 -38.448989 31.514469 -21.077774 7.481245 -117.194462 4.969665 6.949910 2.762428 -0.361148 10.337087 -16.352207 1.645894 27.059702 23.230728 -54.101044 -0.000000 0.000002 0.000006 0.000001 -0.000004 -0.000000 -3.339919 -3.853968 -108.808643 -8.508989 1.107423 -95.054588 0.000004 0.000002 -0.000006 -0.000001 -0.000000 0.000002 -8.034743 0.499759 -103.291154 -8.993116 -0.383411 -94.740550 0.000005 -0.000002 0.000008 0.000000 0.000001 0.000001 -9.078016 6.355202 -108.016962 -1.894706 -7.274881 -86.546584 -0.000009 0.000001 -0.000006 -0.000001 -0.000001 -0.000001 -13.125184 7.301161 -109.759549 -0.023941 -11.514219 -94.104803 -0.000011 0.000012 -0.000003 -0.000002 -0.000001 -0.000001 -0.118070 -3.637542 2.280743 -61.677605 58.319017 96.433187 2.261423 110.007976 -3.097579 20.214187 15.077415 -4.116568 10.337096 16.352229 -1.645908 27.059787 -23.230675 54.101013 -0.000009 0.000023 -0.000007 0.000003 -0.000003 0.000003 -2.944749 2.694789 108.786096 -7.176477 -2.327184 95.057812 0.000003 0.000001 0.000003 -0.000001 0.000002 -0.000000 -7.774339 -1.602686 103.295936 -7.766091 -0.746022 94.740830 0.000001 0.000001 0.000007 0.000001 -0.000001 -0.000003 -9.528867 -4.973939 107.972491 -3.179773 8.705790 86.513840 0.000009 -0.000008 0.000008 -0.000000 -0.000004 -0.000000 -14.196542 -4.324862 109.651030 -3.419134 14.667339 94.157798 -0.000008 -0.000014 0.000002 0.000001 0.000001 -0.000002 -16.554804 18.194910 14.575366 26.551565 2.133515 0.545725 -2.315350 1.604689 -11.405538 1.654685 -0.000004 -0.000002 -0.000000 -0.000002 -0.000000 -6.176214 -12.026222 -14.797103 34.620583 2.741472 -5.787192 -21.437590 -3.001455 11.757717 -1.677239 0.000026 -0.000002 -0.000000 0.000000 0.000000 
-0.370036 91.897224 0.087816 -11.839273 -46.967434 -4.605362 1.545826 0.354611 0.120308 3.090523 0.732736 0.305549 3.090525 0.732720 0.305548 4.696879 1.829785 -0.952217 4.696876 1.829802 -0.952219 -0.000000 -0.000001 -0.000000 0.300959 -19.249539 -0.142681 -38.598164 31.146346 -21.267713 7.486424 -117.087980 4.996568 6.928216 2.940506 -0.668397 10.344607 -16.358622 1.655001 27.061100 23.226442 -54.111600 -0.000000 0.000001 0.000005 0.000000 0.000002 -0.000000 -3.339930 -3.853969 -108.808615 -8.508980 1.107424 -95.054582 0.000004 0.000000 -0.000005 0.000000 -0.000002 0.000002 -8.034486 0.499796 -103.291175 -8.993087 -0.383436 -94.740570 0.000003 0.000003 0.000004 -0.000001 0.000000 0.000001 -9.078015 6.355199 -108.016962 -1.894690 -7.274883 -86.546563 -0.000007 -0.000002 -0.000004 0.000000 0.000001 0.000002 -13.125153 7.301143 -109.758927 -0.023999 -11.514220 -94.107863 -0.000008 0.000007 -0.000002 -0.000001 -0.000000 0.000001 -0.099634 -3.743190 2.686380 -61.113275 58.402256 95.928450 2.143212 110.281614 -2.975469 20.307090 15.314334 -5.267383 10.344620 16.358621 -1.655039 27.061204 -23.226367 54.111610 -0.000013 0.000022 -0.000004 0.000001 -0.000003 0.000003 -2.944720 2.694768 108.786048 -7.176471 -2.327173 95.057833 0.000002 0.000000 0.000006 -0.000002 -0.000003 0.000003 -7.774339 -1.602683 103.295908 -7.766082 -0.746022 94.740809 -0.000001 0.000002 0.000005 0.000002 -0.000000 -0.000005 -9.528855 -4.973961 107.972464 -3.179754 8.705795 86.513812 0.000006 -0.000004 0.000007 -0.000001 0.000002 0.000003 -14.196458 -4.324870 109.650375 -3.419357 14.667333 94.160892 -0.000010 -0.000014 0.000003 -0.000002 0.000002 0.000001 -16.732399 18.106425 14.568252 26.464162 1.901963 0.547395 -2.238644 1.560454 -11.317220 1.526449 0.000011 -0.000004 -0.000000 0.000002 0.000000 -6.002777 -11.956558 -14.566686 34.333660 2.212715 -5.847754 -21.323490 -3.047443 11.966911 -1.753586 -0.000002 0.000004 0.000000 0.000000 0.000000 
